<svg width="100" height="100" viewBox="0 0 100 100" fill="none" xmlns="http://www.w3.org/2000/svg">
<path d="M64.1688 9.6375C71.7313 2.3125 84.375 7.69688 84.375 18.2719C84.375 19.5969 83.9906 20.8344 83.325 21.875H86.4406C87.4012 21.8754 88.3522 22.0651 89.2395 22.4331C90.1267 22.8012 90.9328 23.3404 91.6115 24.0201C92.2903 24.6997 92.8285 25.5065 93.1955 26.3942C93.5624 27.2819 93.7508 28.2332 93.75 29.1937V42.6812C93.7521 44.4381 93.1217 46.1369 91.974 47.4671C90.8264 48.7972 89.2382 49.6697 87.5 49.925V87.2313C87.5 92.5625 83.1344 96.875 77.775 96.875H22.225C16.875 96.875 12.5 92.6063 12.5 87.2313V49.925C10.7618 49.6697 9.17364 48.7972 8.02598 47.4671C6.87831 46.1369 6.24788 44.4381 6.25001 42.6812V29.1937C6.24918 28.2335 6.43751 27.2824 6.80424 26.3949C7.17097 25.5074 7.70892 24.7008 8.38737 24.0212C9.06581 23.3416 9.87148 22.8023 10.7584 22.434C11.6452 22.0658 12.596 21.8758 13.5563 21.875H16.6594C15.9797 20.7964 15.621 19.5467 15.625 18.2719C15.625 7.69688 28.2656 2.28438 35.8344 9.6375L41.4281 15.0625C42.1481 13.3797 43.3448 11.9444 44.8708 10.9338C46.3968 9.92309 48.1853 9.38122 50.0156 9.375C53.8438 9.375 57.1344 11.7031 58.5844 15.05L64.1688 9.6375ZM18.75 50V87.2313C18.75 89.0844 20.2563 90.625 22.225 90.625H40.625V50H18.75ZM59.375 50V90.625H77.775C78.6856 90.635 79.563 90.2833 80.2145 89.647C80.8661 89.0107 81.2385 88.1419 81.25 87.2313V50H59.375ZM87.5 42.6812V29.1937C87.5008 29.0542 87.4742 28.9159 87.4215 28.7867C87.3689 28.6574 87.2913 28.5399 87.1932 28.4406C87.0952 28.3414 86.9785 28.2624 86.8499 28.2083C86.7213 28.1541 86.5833 28.1258 86.4438 28.125H59.375V43.75H86.4438C86.5833 43.7492 86.7213 43.7209 86.8499 43.6667C86.9785 43.6126 87.0952 43.5336 87.1932 43.4344C87.2913 43.3351 87.3689 43.2176 87.4215 43.0883C87.4742 42.9591 87.5008 42.8208 87.5 42.6812ZM40.625 28.125H13.5563C13.4167 28.1258 13.2787 28.1541 13.1501 28.2083C13.0215 28.2624 12.9049 28.3414 12.8068 28.4406C12.7087 28.5399 12.6311 28.6574 12.5785 28.7867C12.5259 28.9159 12.4992 29.0542 12.5 29.1937V42.6812C12.4992 42.8208 12.5259 42.9591 12.5785 43.0883C12.6311 43.2176 12.7087 43.3351 12.8068 43.4344C12.9049 43.5336 13.0215 43.6126 13.1501 43.6667C13.2787 43.7209 13.4167 43.7492 13.5563 43.75H40.625V28.125Z" fill="black"/>
</svg>
